<?xml version="1.0" encoding="utf-8"?>
<svg version="1.1" id="Layer_1" xmlns="http://www.w3.org/2000/svg" xmlns:xlink="http://www.w3.org/1999/xlink" x="0px" y="0px"
	 viewBox="0 0 2639.857 801.959" enable-background="new 0 0 2639.857 801.959" xml:space="preserve">
<path d="M1442.797,58.768c159.792,46.532,299.199,132.76,369.977,196.136c43.159,35.054,32,35.185,48.099,36.906
	c211.236,21.189,358.038,154.657,400.149,304.811c-68.483,0.051-136.966-0.141-205.449-0.192
	c-3.182-10.673-3.851-32.615-17.472-57.108c-64.255-115.022-238.547-71.66-240.383,59.858
	c1.965,122.308,152.886,170.598,226.915,80.96c12.417-13.731,19.12-31.233,26.299-47.988c213.251-0.454,196.252,0.681,548.995,0.849
	v50.606c-224.527-0.168-505.723-1.71-514.516-0.627c-5.379,3.792-7.229,10.657-10.981,15.824
	c-45.864,65.613-125.918,89.456-191.425,72.922c-141.842-34.274-184.065-216.958-72.264-308.532
	c61.648-51.68,152.901-56.126,220.383-7.017c50.652,35.898,61.67,84.224,65.753,88.877c5.038,1.284,80.63,0.991,86.542,0.152
	c-11.025-32.923-81.586-113.439-137.795-142.749c-64.152-33.251-128.237-57.11-215.58-62.012
	c-1.551-0.896-223.16-238.281-565.8-263.446c-168.799-2.481-298.379,37.643-456.155,127.947
	c-11.174,6.263-67.668,42.57-88.099,59.383c-4.317,4.075-10.586,2.285-15.905,2.669c-63.091,3.228-109.765,14.2-153.578,29.231
	c-74.913,30.156-122.117,55.701-139.797,199.887c-1.385,13.215-2.973,26.481-2.538,39.798c1.02,0.03,135.063,1.862,144.67,1.031
	c2.45-4.845,8.611-28.65,30.576-56.471c63.986-79.464,191.756-93.573,274.609,0.142c84.779,104.049,34.502,253.785-94.792,285.519
	c-56.66,11.037-110.398-3.781-143.194-29.312c-43.231-35.543-45.898-51.437-53.923-62.184c-9.404-0.781-312.112-3.137-313.193-3.124
	c-9.167,30.442,23.307,50.132-62.477,43.721c-25.419-0.334-50.849,0.02-76.248-0.475c-0.607-8.291-0.01-16.602-0.404-24.894
	c-21.812-1.086-52.522,0.784-62.194-1.618c-17.903-5.228-13.062-28.682,6.319-27.775c1.006,0.017,51.379,0.558,54.57,0.131
	c1.116-5.153,0.555-27.275,0.142-31.395c-8.45-0.731-53.795-0.461-61.425-1.547c-15.713-3.968-14.428-24.008-0.243-27.462
	c5.541-1.151,34.811-0.057,60.798-0.384c1.082-8.109,0.071-16.289,0.374-24.429c4.477-0.151,82.737,0.3,87.411,0.374
	c28.541,2.078,47.271-4.882,50.869,13.711c2.012,10.334,0.354,20.89,1.294,31.304c24.894,0.925,306.293,2.692,346.499,3.397
	c5.631,11.86,12.463,40.294,46.481,68.695c54.76,45.052,143.179,32.218,182.769-28.018c47.695-67.04,13.026-167.586-68.624-192.85
	c-67.306-21.246-144.951,17.594-160.828,92.163c-1.84,7.796-2.649,15.784-4.641,23.539c-5.942,0.934-169.083-1.255-236.652-1.284
	c-1.186-79.786,8.533-191.785,55.318-254.993c74.79-109.288,282.836-111.922,289.23-117.148
	C779.167,157.316,886.298,99.449,985.46,67.362C1150.546,10.055,1292.508,15.273,1442.797,58.768z"/>
</svg>
